<?xml version="1.0" encoding="utf-8"?>
<!-- Generator: Adobe Illustrator 24.2.3, SVG Export Plug-In . SVG Version: 6.00 Build 0)  -->
<svg version="1.1" id="Calque_1" xmlns="http://www.w3.org/2000/svg" xmlns:xlink="http://www.w3.org/1999/xlink" x="0px" y="0px"
	 viewBox="0 0 595.3 841.9" style="enable-background:new 0 0 595.3 841.9;" xml:space="preserve">
<style type="text/css">
	.st0{fill:#FFFFFF;}
	.st1{fill:#EAEAEA;}
	.st2{fill:#2E204E;}
	.st3{fill:#3C2850;}
	.st4{fill:#4D3E64;}
	.st5{fill:#D2C1DF;}
	.st6{fill:#EF7984;}
	.st7{fill:none;stroke:#FFFFFF;stroke-width:0.9667;stroke-linecap:round;stroke-miterlimit:10;}
	.st8{opacity:0.35;}
	.st9{opacity:0.35;fill:#FFFFFF;}
	.st10{fill:#F5B0B4;}
	.st11{fill:#EB5E6B;}
	.st12{fill:#F39449;}
	.st13{fill:#F07E38;}
	.st14{opacity:0.3;}
	.st15{fill:#271537;}
	.st16{fill:none;stroke:#271537;stroke-width:2;stroke-linecap:round;stroke-miterlimit:10;}
	.st17{fill:none;stroke:#2E204E;stroke-width:2;stroke-linecap:round;stroke-miterlimit:10;}
	.st18{fill:#EB5946;}
	.st19{fill:none;stroke:#271537;stroke-width:1.9558;stroke-linecap:round;stroke-miterlimit:10;}
	.st20{fill:none;stroke:#2E204E;stroke-width:1.9558;stroke-linecap:round;stroke-miterlimit:10;}
	.st21{fill:#33204F;}
</style>
<g id="PHONE">
	
		<image style="overflow:visible;opacity:0.3;" width="864" height="1841" xlink:href="6682062F.png"  transform="matrix(0.24 0 0 0.24 197.6482 207.8043)">
	</image>
	<g>
		<g>
			<g>
				<path class="st0" d="M237.9,219.8c-11.5,0-20.9,9.8-20.9,21.9v325.5c0,12.1,9.4,21.9,20.9,21.9h126.9c11.5,0,20.9-9.8,20.9-21.9
					V241.7c0-12.1-9.4-21.9-20.9-21.9H237.9z"/>
			</g>
			<g>
				<path class="st1" d="M217.1,569.7c1.2,10.9,10.1,19.4,20.8,19.4h126.9c11.5,0,20.9-9.8,20.9-21.9v-55.4H217.1V569.7z"/>
			</g>
			<g>
				<path class="st2" d="M326.5,580.7h-50.3c-0.6,0-1-0.5-1-1c0-0.6,0.5-1,1-1h50.3c0.6,0,1,0.5,1,1
					C327.5,580.2,327.1,580.7,326.5,580.7z"/>
			</g>
			<g>
				<g>
					<path class="st3" d="M388.5,239.6c0-16.7-9.8-22.7-22-22.7h-20.8h-88.6h-20.8c-12.1,0-22,7.3-22,22.7v329.7
						c0,12.5,5,22.7,22,22.7h130.2c15.6,0,22-10.2,22-22.7V239.6z M383.4,568c0,9.9-6.5,18-16.2,18H236.7c-10.9,0-17.4-6.3-17.4-18
						V240.3c0-8.7,6.1-17.4,17.4-17.4h19.1c0,0,1.2,0.1,1.2,1.4v4.7c0,5,3.9,9.1,8.8,9.1h71c4.9,0,8.8-4.1,8.8-9.1v-4.7
						c0-1.3,1.1-1.4,1.1-1.4H366c11.1,0,17.4,6.5,17.4,16.4V568z"/>
				</g>
			</g>
			<g>
				<path class="st0" d="M312.8,227.7c0.9,0,1.7,0.8,1.7,1.8c0,1-0.8,1.8-1.7,1.8h-21.9c-0.9,0-1.7-0.8-1.7-1.8c0-1,0.8-1.8,1.7-1.8
					H312.8z"/>
			</g>
			<g>
				<path class="st4" d="M325.7,225.3c2.2,0,4,1.8,4,4.1c0,2.2-1.8,4.1-4,4.1c-2.2,0-4-1.8-4-4.1
					C321.7,227.2,323.5,225.3,325.7,225.3z"/>
			</g>
			<g>
				<rect x="222.1" y="514.7" class="st5" width="8.9" height="13.1"/>
				<rect x="233.5" y="514.7" class="st5" width="8.9" height="13.1"/>
				<rect x="244.8" y="514.7" class="st5" width="8.9" height="13.1"/>
				<rect x="256.3" y="514.7" class="st5" width="8.9" height="13.1"/>
				<rect x="267.8" y="514.7" class="st5" width="8.9" height="13.1"/>
				<rect x="279.3" y="514.7" class="st5" width="8.9" height="13.1"/>
				<rect x="290.6" y="514.7" class="st5" width="8.9" height="13.1"/>
				<rect x="302" y="514.7" class="st5" width="8.9" height="13.1"/>
				<rect x="313.8" y="514.7" class="st5" width="8.9" height="13.1"/>
				<rect x="325.2" y="514.7" class="st5" width="8.9" height="13.1"/>
				<rect x="336.5" y="514.7" class="st5" width="8.9" height="13.1"/>
				<rect x="348" y="514.7" class="st5" width="8.9" height="13.1"/>
				<rect x="359.5" y="514.7" class="st5" width="8.9" height="13.1"/>
				<rect x="371" y="514.7" class="st5" width="8.9" height="13.1"/>
				<rect x="227.6" y="530.3" class="st5" width="8.9" height="13.1"/>
				<rect x="239" y="530.3" class="st5" width="8.9" height="13.1"/>
				<rect x="250.3" y="530.3" class="st5" width="8.9" height="13.1"/>
				<rect x="261.8" y="530.3" class="st5" width="8.9" height="13.1"/>
				<rect x="273.3" y="530.3" class="st5" width="8.9" height="13.1"/>
				<rect x="284.8" y="530.3" class="st5" width="8.9" height="13.1"/>
				<rect x="296.1" y="530.3" class="st5" width="8.9" height="13.1"/>
				<rect x="307.6" y="530.3" class="st5" width="8.9" height="13.1"/>
				<rect x="319.3" y="530.3" class="st5" width="8.9" height="13.1"/>
				<rect x="330.7" y="530.3" class="st5" width="8.9" height="13.1"/>
				<rect x="342" y="530.3" class="st5" width="8.9" height="13.1"/>
				<rect x="353.5" y="530.3" class="st5" width="26.4" height="13.1"/>
				<rect x="267.8" y="562" class="st5" width="66.3" height="13.4"/>
				<rect x="222.1" y="546.3" class="st5" width="8.9" height="13.1"/>
				<rect x="233.5" y="546.3" class="st5" width="8.9" height="13.1"/>
				<rect x="244.8" y="546.3" class="st5" width="8.9" height="13.1"/>
				<rect x="256.3" y="546.3" class="st5" width="8.9" height="13.1"/>
				<rect x="267.8" y="546.3" class="st5" width="8.9" height="13.1"/>
				<rect x="279.3" y="546.3" class="st5" width="8.9" height="13.1"/>
				<rect x="290.6" y="546.3" class="st5" width="8.9" height="13.1"/>
				<rect x="302" y="546.3" class="st5" width="8.9" height="13.1"/>
				<rect x="313.8" y="546.3" class="st5" width="8.9" height="13.1"/>
				<rect x="325.2" y="546.3" class="st5" width="8.9" height="13.1"/>
				<rect x="336.5" y="546.3" class="st5" width="8.9" height="13.1"/>
				<rect x="348" y="546.3" class="st5" width="8.9" height="13.1"/>
				<path class="st5" d="M359.5,546.3V562H348v13.3h11.6c0,0,1.1,0,2.8,0c5.2,0,15.9,0,16,0c0.8,0,1.5-0.7,1.5-1.6
					c0-0.1,0-14.4,0-14.4v-13.1H371H359.5z"/>
				<rect x="336.5" y="562.2" class="st5" width="8.9" height="13.1"/>
				<rect x="233.5" y="562.2" class="st5" width="8.9" height="13.1"/>
				<rect x="244.8" y="562.2" class="st5" width="8.9" height="13.1"/>
				<rect x="256.3" y="562.2" class="st5" width="8.9" height="13.1"/>
				<path class="st5" d="M222.1,574.4L222.1,574.4C222.1,574.4,222.1,574.4,222.1,574.4c0,0.5,0.4,0.9,0.8,0.9c0,0,0,0,0,0l0,0h8
					v-13.1h-8.9V574.4z"/>
			</g>
			<path class="st0" d="M325.7,227.4c1.1,0,1.9,0.9,1.9,2c0,1.1-0.8,2-1.9,2c-1.1,0-1.9-0.9-1.9-2
				C323.8,228.3,324.6,227.4,325.7,227.4z"/>
			<g>
				<g>
					<path class="st6" d="M370.4,468.5c-9.7,0-84.4,0-84.4,0c-7.9,0-14.3-6.6-14.3-14.8v-2.1c0-8.1,6.4-14.8,14.3-14.8h70.1
						c7.9,0,14.3,6.6,14.3,14.8V468.5z"/>
				</g>
				<line class="st7" x1="282.5" y1="447.3" x2="345.4" y2="447.3"/>
				<line class="st7" x1="349.6" y1="447.3" x2="356.7" y2="447.3"/>
				<line class="st7" x1="282.5" y1="452.4" x2="307.6" y2="452.4"/>
				<line class="st7" x1="310.5" y1="452.4" x2="322.7" y2="452.4"/>
				<line class="st7" x1="326.9" y1="452.4" x2="351.9" y2="452.4"/>
				<line class="st7" x1="355.9" y1="452.4" x2="359.6" y2="452.4"/>
				<line class="st7" x1="282.4" y1="458.2" x2="315.7" y2="458.2"/>
			</g>
			<g>
				<g>
					<path class="st2" d="M233.2,423.3c9.7,0,84.4,0,84.4,0c7.9,0,14.3-6.6,14.3-14.8v-2.1c0-8.1-6.4-14.8-14.3-14.8h-70.1
						c-7.9,0-14.3,6.6-14.3,14.8V423.3z"/>
				</g>
				<line class="st7" x1="244" y1="402.1" x2="307" y2="402.1"/>
				<line class="st7" x1="311.2" y1="402.1" x2="318.3" y2="402.1"/>
				<line class="st7" x1="244" y1="407.2" x2="269.1" y2="407.2"/>
				<line class="st7" x1="272" y1="407.2" x2="284.3" y2="407.2"/>
				<line class="st7" x1="288.5" y1="407.2" x2="313.4" y2="407.2"/>
				<line class="st7" x1="317.4" y1="407.2" x2="321.2" y2="407.2"/>
				<line class="st7" x1="243.9" y1="413" x2="277.3" y2="413"/>
			</g>
			<g>
				<g>
					<path class="st6" d="M370.4,377.9c-9.7,0-84.4,0-84.4,0c-7.9,0-14.3-6.6-14.3-14.8v-2c0-8.1,6.4-14.8,14.3-14.8h70.1
						c7.9,0,14.3,6.6,14.3,14.8V377.9z"/>
				</g>
				<line class="st7" x1="282.5" y1="356.7" x2="345.4" y2="356.7"/>
				<line class="st7" x1="349.6" y1="356.7" x2="356.7" y2="356.7"/>
				<line class="st7" x1="282.5" y1="361.8" x2="307.6" y2="361.8"/>
				<line class="st7" x1="310.5" y1="361.8" x2="322.7" y2="361.8"/>
				<line class="st7" x1="326.9" y1="361.8" x2="351.9" y2="361.8"/>
				<line class="st7" x1="355.9" y1="361.8" x2="359.6" y2="361.8"/>
				<line class="st7" x1="282.4" y1="367.6" x2="315.7" y2="367.6"/>
			</g>
			<g>
				<g>
					<path class="st2" d="M233.2,333.2c9.7,0,84.4,0,84.4,0c7.9,0,14.3-6.6,14.3-14.8v-2.1c0-8.1-6.4-14.8-14.3-14.8h-70.1
						c-7.9,0-14.3,6.6-14.3,14.8V333.2z"/>
				</g>
				<line class="st7" x1="244" y1="312" x2="307" y2="312"/>
				<line class="st7" x1="311.2" y1="312" x2="318.3" y2="312"/>
				<line class="st7" x1="244" y1="317" x2="269.1" y2="317"/>
				<line class="st7" x1="272" y1="317" x2="284.3" y2="317"/>
				<line class="st7" x1="288.5" y1="317" x2="313.4" y2="317"/>
				<line class="st7" x1="317.4" y1="317" x2="321.2" y2="317"/>
				<line class="st7" x1="243.9" y1="322.8" x2="277.3" y2="322.8"/>
			</g>
			<g>
				<g>
					<path class="st6" d="M370.4,286.9c-9.7,0-84.4,0-84.4,0c-7.9,0-14.3-6.6-14.3-14.8v-2c0-8.1,6.4-14.8,14.3-14.8h70.1
						c7.9,0,14.3,6.6,14.3,14.8V286.9z"/>
				</g>
				<line class="st7" x1="282.5" y1="265.7" x2="345.4" y2="265.7"/>
				<line class="st7" x1="349.6" y1="265.7" x2="356.7" y2="265.7"/>
				<line class="st7" x1="282.5" y1="270.7" x2="307.6" y2="270.7"/>
				<line class="st7" x1="310.5" y1="270.7" x2="322.7" y2="270.7"/>
				<line class="st7" x1="326.9" y1="270.7" x2="351.9" y2="270.7"/>
				<line class="st7" x1="355.9" y1="270.7" x2="359.6" y2="270.7"/>
				<line class="st7" x1="282.4" y1="276.5" x2="315.7" y2="276.5"/>
			</g>
			<g>
				<g>
					<g>
						<path class="st6" d="M236.5,502.5c0,3.9-3.1,7.1-6.9,7.1l0,0c-3.8,0-6.9-3.2-6.9-7.1l0,0c0-3.9,3.1-7.1,6.9-7.1l0,0
							C233.4,495.5,236.5,498.6,236.5,502.5L236.5,502.5z"/>
					</g>
					<g>
						<path class="st6" d="M253.3,502.5c0,3.9-3.1,7.1-6.9,7.1l0,0c-3.8,0-6.9-3.2-6.9-7.1l0,0c0-3.9,3.1-7.1,6.9-7.1l0,0
							C250.2,495.5,253.3,498.6,253.3,502.5L253.3,502.5z"/>
					</g>
					<g>
						<path class="st6" d="M270,502.5c0,3.9-3.1,7.1-6.9,7.1l0,0c-3.8,0-6.9-3.2-6.9-7.1l0,0c0-3.9,3.1-7.1,6.9-7.1l0,0
							C266.9,495.5,270,498.6,270,502.5L270,502.5z"/>
					</g>
					<path class="st5" d="M363.4,502.5c0,3.9-3.1,7.1-6.9,7.1h-76.7c-3.8,0-6.9-3.2-6.9-7.1l0,0c0-3.9,3.1-7.1,6.9-7.1h76.7
						C360.3,495.5,363.4,498.6,363.4,502.5L363.4,502.5z"/>
					<g>
						<path class="st6" d="M379.9,502.5c0,3.9-3.1,7.1-6.9,7.1l0,0c-3.8,0-6.9-3.2-6.9-7.1l0,0c0-3.9,3.1-7.1,6.9-7.1l0,0
							C376.8,495.5,379.9,498.6,379.9,502.5L379.9,502.5z"/>
					</g>
					<g>
						<path class="st2" d="M360.8,502.5c0,2.7-2.2,5-4.8,5l0,0c-2.7,0-4.8-2.2-4.8-5l0,0c0-2.7,2.2-5,4.8-5l0,0
							C358.7,497.6,360.8,499.8,360.8,502.5L360.8,502.5z"/>
					</g>
					<polygon class="st2" points="376.9,502.6 373.8,499.4 373.8,501.9 369.7,501.9 369.7,503.2 373.8,503.2 373.8,505.7 					"/>
				</g>
			</g>
			<g class="st8">
				<path class="st5" d="M395.9,630.6c0,5.5-42.3,10-94.5,10c-52.2,0-94.5-4.5-94.5-10c0-5.5,42.3-10,94.5-10
					C353.6,620.6,395.9,625.1,395.9,630.6z"/>
			</g>
			<g>
				<g>
					<path class="st2" d="M235.4,486.3c0,0.5-0.4,1-0.9,1c-0.5,0-0.9-0.4-0.9-1c0-0.5,0.4-1,0.9-1
						C235,485.3,235.4,485.7,235.4,486.3z"/>
					<path class="st2" d="M238.9,486.3c0,0.5-0.4,1-0.9,1c-0.5,0-0.9-0.4-0.9-1c0-0.5,0.4-1,0.9-1
						C238.5,485.3,238.9,485.7,238.9,486.3z"/>
					<path class="st2" d="M242.4,486.3c0,0.5-0.4,1-0.9,1s-0.9-0.4-0.9-1c0-0.5,0.4-1,0.9-1S242.4,485.7,242.4,486.3z"/>
				</g>
			</g>
		</g>
	</g>
</g>
<g id="USERS">
	<g>
		<path class="st2" d="M128.8,223.8c-20.9,11.8-28.7,38.9-17.2,60.5c5.5,10.4,14.4,17.6,24.5,21l0,0l44.9,17.1l-10.8-20.4
			c20.9-11.8,28.7-38.9,17.2-60.5S149.8,212,128.8,223.8z"/>
		<path class="st9" d="M182.7,244.5c10,18.9,3.2,42.5-15,52.8c-18.3,10.3-41.2,3.3-51.1-15.5c-10-18.9-3.2-42.5,15-52.8
			C149.8,218.7,172.7,225.6,182.7,244.5z"/>
		<path class="st10" d="M163.4,256.2c0,0,9.2,27.2-14.8,23c-0.1,4.6,0.3,7.5,0.3,7.5s-4.3,3.4-9.7,0.5c-0.2-5.3-0.4-8.5-0.4-8.5
			S134,245.8,163.4,256.2z"/>
		<path class="st11" d="M141.8,261.3c1.5-1.1,6.2-2.7,5.9,4.7c5.5-0.8,16.8-3.6,11.1-6.3c8.1,2.3,21.7-4.1,5.7-9
			c4.8-2.4,0.3-6.4-8.3-4.2c6-2.8-5.3-11.2-18.9-0.5c0.5-5-5.8-2.6-3.4,2c-6.5-0.4-4.3,5-0.2,4.5c-10.1,10.2,2,17.9,5.4,26.3
			c1.3-4.8,3.5-9.6,3.5-9.6S137.2,264.7,141.8,261.3z"/>
		<path class="st12" d="M132.2,297.7c0,0,0.4-13.5,10.9-13c10.5,0.5,25.6,8.8,28.8,9.8C169.2,297.8,149.5,308,132.2,297.7z"/>
	</g>
	<g>
		<path class="st2" d="M468.5,483.5c22.2,9,33.1,35,24.3,57.9c-4.2,11-12.2,19.3-21.8,24l0,0l-42.5,22.7l8.3-21.6
			c-22.2-9-33.1-35-24.3-57.9C421.2,485.7,446.3,474.5,468.5,483.5z"/>
		<path class="st9" d="M417.5,510.9c-7.6,20,1.9,42.6,21.2,50.5c19.4,7.9,41.3-1.9,48.9-21.9c7.6-20-1.9-42.6-21.2-50.5
			C447,481.1,425.1,490.9,417.5,510.9z"/>
		<g>
			<path class="st13" d="M446.1,536.3c0,0,0.7,15.4-2.4,19.7c5.9,0.5,17.6-10.3,17.6-10.3S453.2,534.6,446.1,536.3z"/>
			<path class="st10" d="M437.2,514.3c0,0-10.1,29.9,16.3,25.3c0.1,5.1-0.4,8.2-0.4,8.2s4.8,3.8,10.6,0.5c0.3-5.9,0.4-9.4,0.4-9.4
				S469.5,502.9,437.2,514.3z"/>
			<path class="st12" d="M454.3,524.8c0,0-0.8-5.6,3.9-6c4.7-0.4,6.7,7.6,1.1,9.9c0.6,2.6,1.1,10.2-2.4,12.5
				c-3.6,2.4-6.4,7.4-7.1,9.1c3.4-0.9,17-5.7,20.2,8.7c3.3-8.1,3.3-20.1,3.7-31.8c0.4-11.8-2.3-27-18.1-25.9c-13.6,1-25.4,5-23,15.8
				c2.2,9.8,10.1,10.4,9,3.9c3.7,5.5,8.5,5.9,6.5,1C451.4,526.6,455.5,529.6,454.3,524.8z"/>
			<path class="st5" d="M470.1,559.6c0,0-0.4-13.5-10.9-13c-10.5,0.5-18,13.4-21.2,14.4C443.4,564,458.5,566.5,470.1,559.6z"/>
			<path class="st6" d="M453.1,530.9c0,2-2.3,3.6-5.1,3.6s-5.1-1.6-5.1-3.6c0-2,2.3-3.6,5.1-3.6S453.1,528.9,453.1,530.9z"/>
		</g>
	</g>
</g>
<g id="EMOJIS">
	<g>
		<g class="st14">
			<path class="st15" d="M231,172.3c1.5,14.8-8.8,28-23.1,29.6c-14.3,1.6-27.1-9.1-28.6-23.9c-1.5-14.8,8.8-28,23.1-29.6
				C216.6,146.9,229.5,157.6,231,172.3z"/>
			<path class="st15" d="M187.9,178.7l35.8-3.9c0,0,1.9,18.2-15.8,20.1C188.9,197,187.9,178.7,187.9,178.7z"/>
			<path class="st16" d="M199.2,170.3c0,0-5.2-12.6-10.1,1.1"/>
			<path class="st16" d="M221.1,167.9c0,0-5.2-12.6-10.1,1.1"/>
			<path class="st15" d="M222.1,185c0,0-14-6.9-30.7,3.5c0.2,0.4,0.2,0.4,0.7,0.9c2.9,3.5,7.7,6.4,15.9,5.5
				C216.3,194,220.3,189.5,222.1,185z"/>
		</g>
		<g>
			<g>
				<g>
					<path class="st12" d="M230,171.3c1.5,14.8-8.8,28-23.1,29.6c-14.3,1.6-27.1-9.1-28.6-23.9c-1.5-14.8,8.8-28,23.1-29.6
						C215.6,145.9,228.5,156.6,230,171.3z"/>
				</g>
				<g>
					<path class="st0" d="M186.9,177.7l35.8-3.9c0,0,1.9,18.2-15.8,20.1C187.9,196,186.9,177.7,186.9,177.7z"/>
				</g>
				<path class="st17" d="M198.2,169.3c0,0-5.2-12.6-10.1,1.1"/>
				<path class="st17" d="M220.1,166.9c0,0-5.2-12.6-10.1,1.1"/>
				<g>
					<path class="st18" d="M221.1,184c0,0-14-6.9-30.7,3.5c0.2,0.4,0.2,0.4,0.7,0.9c2.9,3.5,7.7,6.4,15.9,5.5
						C215.3,193,219.3,188.5,221.1,184z"/>
				</g>
			</g>
		</g>
	</g>
	<g>
		<g class="st14">
			<path class="st15" d="M484.5,209.2c-3.8,14.3-18.2,22.7-32,18.7c-13.9-4-22-18.8-18.2-33.1c3.8-14.3,18.2-22.7,32-18.7
				C480.2,180.1,488.3,194.9,484.5,209.2z"/>
			<path class="st15" d="M456.7,190.5c-3.5-4.1-6,1.7-6.1,2.4c0.2-0.6,1-6.7-4.1-5.3c-4.1,1.1-2.4,7.8,2.5,11.3c0,0,0,0,0,0
				c0,0,0,0,0,0C454.9,198.4,459.9,194.1,456.7,190.5z"/>
			<path class="st15" d="M478.2,196.6c-3.5-4.1-6,1.7-6.1,2.4c0.2-0.6,1-6.7-4.1-5.3c-4.1,1.1-2.4,7.8,2.5,11.3c0,0,0,0,0,0
				c0,0,0,0,0,0C476.3,204.6,481.3,200.2,478.2,196.6z"/>
			<path class="st19" d="M440.9,200.1c0,0-1.9,15.8,13.8,20.3c15.8,4.5,22.6-9.9,22.6-9.9"/>
		</g>
		<g>
			<g>
				<g>
					<path class="st12" d="M483.5,208.2c-3.8,14.3-18.2,22.7-32,18.7c-13.9-4-22-18.8-18.2-33.1c3.8-14.3,18.2-22.7,32-18.7
						C479.2,179.1,487.3,193.9,483.5,208.2z"/>
				</g>
				<g>
					<g>
						<g>
							<path class="st18" d="M455.7,189.5c-3.5-4.1-6,1.7-6.1,2.4c0.2-0.6,1-6.7-4.1-5.3c-4.1,1.1-2.4,7.8,2.5,11.3c0,0,0,0,0,0
								c0,0,0,0,0,0C453.9,197.4,458.9,193.1,455.7,189.5z"/>
						</g>
						<g>
							<path class="st18" d="M477.2,195.6c-3.5-4.1-6,1.7-6.1,2.4c0.2-0.6,1-6.7-4.1-5.3c-4.1,1.1-2.4,7.8,2.5,11.3c0,0,0,0,0,0
								c0,0,0,0,0,0C475.3,203.6,480.3,199.2,477.2,195.6z"/>
						</g>
					</g>
				</g>
				<path class="st20" d="M439.9,199.1c0,0-1.9,15.8,13.8,20.3c15.8,4.5,22.6-9.9,22.6-9.9"/>
			</g>
		</g>
	</g>
	<g>
		<g class="st14">
			<path class="st15" d="M418.7,338.9c-7.6,12.6-23.6,16.5-35.8,8.7c-12.2-7.8-16-24.4-8.4-37c7.6-12.6,23.6-16.5,35.8-8.7
				C422.6,309.7,426.3,326.3,418.7,338.9z"/>
			<path class="st15" d="M412.3,319c-8.8-10.5-15.4,4.3-15.9,5.9c0.4-1.6,2.7-17.2-10.4-13.7c-10.6,2.8-6.3,20.1,6.1,29.1
				c0,0,0-0.1,0-0.1c0,0,0,0.1,0,0.1C407.2,339.5,420.2,328.5,412.3,319z"/>
		</g>
		<g>
			<g>
				<g>
					<path class="st12" d="M417.7,337.9c-7.6,12.6-23.6,16.5-35.8,8.7c-12.2-7.8-16-24.4-8.4-37c7.6-12.6,23.6-16.5,35.8-8.7
						C421.6,308.7,425.3,325.3,417.7,337.9z"/>
				</g>
				<g>
					<path class="st21" d="M411.3,318c-8.8-10.5-15.4,4.3-15.9,5.9c0.4-1.6,2.7-17.2-10.4-13.7c-10.6,2.8-6.3,20.1,6.1,29.1
						c0,0,0-0.1,0-0.1c0,0,0,0.1,0,0.1C406.2,338.5,419.2,327.5,411.3,318z"/>
				</g>
			</g>
		</g>
	</g>
	<g>
		<g class="st14">
			<path class="st15" d="M232.7,456.3c1.5,14.8-8.8,28-23.1,29.6c-14.3,1.6-27.1-9.1-28.6-23.9c-1.5-14.8,8.8-28,23.1-29.6
				C218.3,430.9,231.1,441.5,232.7,456.3z"/>
			<path class="st16" d="M200.7,456c0,0-5.2-12.6-10.1,1.1"/>
			<path class="st16" d="M222.6,453.6c0,0-5.2-12.6-10.1,1.1"/>
			<path class="st15" d="M223.3,464.3c0,0,2.5,9.4-4.2,11.2c-6.7,1.9-8.1-7.6-8.1-7.6S220.8,465.9,223.3,464.3z"/>
			<path class="st16" d="M190.8,468.2c0,0,20.2,4.7,35-5.5"/>
		</g>
		<g>
			<g>
				<g>
					<path class="st12" d="M231.7,455.3c1.5,14.8-8.8,28-23.1,29.6c-14.3,1.6-27.1-9.1-28.6-23.9c-1.5-14.8,8.8-28,23.1-29.6
						C217.3,429.9,230.1,440.5,231.7,455.3z"/>
				</g>
				<path class="st17" d="M199.7,455c0,0-5.2-12.6-10.1,1.1"/>
				<path class="st17" d="M221.6,452.6c0,0-5.2-12.6-10.1,1.1"/>
				<g>
					<path class="st18" d="M222.3,463.3c0,0,2.5,9.4-4.2,11.2c-6.7,1.9-8.1-7.6-8.1-7.6S219.8,464.9,222.3,463.3z"/>
				</g>
				<path class="st17" d="M189.8,467.2c0,0,20.2,4.7,35-5.5"/>
			</g>
		</g>
	</g>
</g>
<g id="SPARKLES">
	<g>
		<path class="st12" d="M140,337.4c-0.3-0.5-0.7-0.5-0.9,0l-2.6,5.1c-0.2,0.5-0.8,1.2-1.2,1.5l-3.3,2.7c-0.4,0.3-0.4,0.9,0,1.3
			l3.7,3.1c0.4,0.4,1,1,1.2,1.5l2.2,4.2c0.3,0.5,0.7,0.5,0.9,0l2.5-4.7c0.3-0.5,0.8-1.2,1.3-1.5l3.4-2.6c0.4-0.3,0.4-0.9,0-1.2
			l-3.2-2.6c-0.4-0.3-1-1-1.2-1.5L140,337.4z"/>
	</g>
	<g>
		<path class="st12" d="M128.9,354.7c-0.1-0.3-0.4-0.3-0.5,0l-1.4,2.7c-0.1,0.3-0.4,0.6-0.6,0.8l-1.8,1.4c-0.2,0.2-0.2,0.5,0,0.7
			l1.9,1.7c0.2,0.2,0.5,0.6,0.6,0.8l1.2,2.2c0.1,0.3,0.4,0.3,0.5,0l1.3-2.5c0.1-0.3,0.4-0.6,0.7-0.8l1.8-1.4c0.2-0.2,0.2-0.5,0-0.7
			l-1.7-1.4c-0.2-0.2-0.5-0.5-0.7-0.8L128.9,354.7z"/>
	</g>
	<g>
		<path class="st12" d="M361.8,160.2c0.3-0.5,0.7-0.5,0.9,0l2.6,5.1c0.2,0.5,0.8,1.2,1.2,1.5l3.3,2.7c0.4,0.3,0.4,0.9,0,1.3
			l-3.7,3.1c-0.4,0.4-1,1-1.2,1.5l-2.2,4.2c-0.3,0.5-0.7,0.5-0.9,0l-2.5-4.7c-0.3-0.5-0.8-1.2-1.3-1.5l-3.4-2.6
			c-0.4-0.3-0.4-0.9,0-1.2l3.2-2.6c0.4-0.3,1-1,1.2-1.5L361.8,160.2z"/>
	</g>
	<g>
		<path class="st12" d="M373,177.5c0.1-0.3,0.4-0.3,0.5,0l1.4,2.7c0.1,0.3,0.4,0.6,0.6,0.8l1.8,1.4c0.2,0.2,0.2,0.5,0,0.7l-1.9,1.7
			c-0.2,0.2-0.5,0.6-0.6,0.8l-1.2,2.2c-0.1,0.3-0.4,0.3-0.5,0l-1.3-2.5c-0.1-0.3-0.4-0.6-0.7-0.8l-1.8-1.4c-0.2-0.2-0.2-0.5,0-0.7
			l1.7-1.4c0.2-0.2,0.5-0.5,0.7-0.8L373,177.5z"/>
	</g>
	<g>
		<path class="st12" d="M522.6,448.1c-0.3-0.5-0.7-0.5-0.9,0l-2.6,5.1c-0.2,0.5-0.8,1.2-1.2,1.5l-3.3,2.7c-0.4,0.3-0.4,0.9,0,1.3
			l3.7,3.1c0.4,0.4,1,1,1.2,1.5l2.2,4.2c0.3,0.5,0.7,0.5,0.9,0l2.5-4.7c0.3-0.5,0.8-1.2,1.3-1.5l3.4-2.6c0.4-0.3,0.4-0.9,0-1.2
			l-3.2-2.6c-0.4-0.3-1-1-1.2-1.5L522.6,448.1z"/>
	</g>
	<g>
		<path class="st12" d="M511.4,465.5c-0.1-0.3-0.4-0.3-0.5,0l-1.4,2.7c-0.1,0.3-0.4,0.6-0.6,0.8l-1.8,1.4c-0.2,0.2-0.2,0.5,0,0.7
			l1.9,1.7c0.2,0.2,0.5,0.6,0.6,0.8l1.2,2.2c0.1,0.3,0.4,0.3,0.5,0l1.3-2.5c0.1-0.3,0.4-0.6,0.7-0.8l1.8-1.4c0.2-0.2,0.2-0.5,0-0.7
			l-1.7-1.4c-0.2-0.2-0.5-0.5-0.7-0.8L511.4,465.5z"/>
	</g>
	<g>
		<path class="st12" d="M409.6,459.9c-0.1-0.3-0.4-0.3-0.5,0l-1.4,2.7c-0.1,0.3-0.4,0.6-0.6,0.8l-1.8,1.4c-0.2,0.2-0.2,0.5,0,0.7
			l1.9,1.7c0.2,0.2,0.5,0.6,0.6,0.8l1.2,2.2c0.1,0.3,0.4,0.3,0.5,0l1.3-2.5c0.1-0.3,0.4-0.6,0.7-0.8l1.8-1.4c0.2-0.2,0.2-0.5,0-0.7
			l-1.7-1.4c-0.2-0.2-0.5-0.5-0.7-0.8L409.6,459.9z"/>
	</g>
	<g>
		<path class="st12" d="M200,586.9c-0.1-0.3-0.4-0.3-0.5,0l-1.4,2.7c-0.1,0.3-0.4,0.6-0.6,0.8l-1.8,1.4c-0.2,0.2-0.2,0.5,0,0.7
			l1.9,1.7c0.2,0.2,0.5,0.6,0.6,0.8l1.2,2.2c0.1,0.3,0.4,0.3,0.5,0l1.3-2.5c0.1-0.3,0.4-0.6,0.7-0.8l1.8-1.4c0.2-0.2,0.2-0.5,0-0.7
			l-1.7-1.4c-0.2-0.2-0.5-0.5-0.7-0.8L200,586.9z"/>
	</g>
</g>
</svg>
